<svg width="195" height="91" viewBox="0 0 195 91" fill="none" xmlns="http://www.w3.org/2000/svg">
<path d="M93.3937 43.6932L102 43.1202C102.196 44.5694 102.556 45.6479 103.145 46.423C104.094 47.6363 105.403 48.243 107.138 48.243C108.414 48.243 109.428 47.9396 110.116 47.2993C110.77 46.7938 111.163 45.9849 111.163 45.1424C111.163 44.3335 110.803 43.5584 110.181 43.0528C109.527 42.4462 107.988 41.8395 105.567 41.3003C101.607 40.3903 98.7604 39.1771 97.0915 37.6268C95.4226 36.1776 94.4736 34.0543 94.539 31.7963C94.539 30.246 94.9971 28.6957 95.848 27.415C96.8297 25.9658 98.1713 24.8199 99.7748 24.1796C101.509 23.4044 103.931 23 106.974 23C110.705 23 113.552 23.7077 115.515 25.1569C117.478 26.5724 118.656 28.8642 119.016 31.9985L110.508 32.504C110.279 31.1559 109.821 30.1786 109.068 29.5382C108.316 28.8979 107.334 28.5946 106.058 28.5946C105.011 28.5946 104.225 28.8305 103.702 29.2686C103.211 29.673 102.884 30.2797 102.916 30.9537C102.916 31.4593 103.178 31.9311 103.571 32.2344C103.996 32.6388 105.011 33.0096 106.614 33.3466C110.574 34.2228 113.388 35.0991 115.122 36.0091C116.857 36.919 118.1 38.0312 118.853 39.3456C119.638 40.6937 120.031 42.244 119.998 43.828C119.998 45.7153 119.475 47.6026 118.427 49.1866C117.347 50.838 115.842 52.1187 114.075 52.8939C112.21 53.7364 109.854 54.1745 107.039 54.1745C102.065 54.1745 98.6295 53.1972 96.6988 51.2088C94.7681 49.2203 93.6227 46.7264 93.3937 43.6932ZM2.0616 53.669V23.5392H17.1473C19.9288 23.5392 22.0886 23.7752 23.5611 24.2807C25.001 24.7525 26.2772 25.7299 27.128 27.0443C28.077 28.4935 28.5351 30.1786 28.5024 31.9311C28.6006 34.8969 27.128 37.7279 24.6083 39.2108C23.6266 39.7837 22.5467 40.1881 21.4341 40.3903C22.2522 40.6263 23.0703 41.0307 23.7902 41.5025C24.3465 41.9743 24.8046 42.5136 25.23 43.0865C25.7209 43.6595 26.1463 44.2998 26.5063 44.9738L30.8913 53.7027H20.616L15.7729 44.4346C15.1511 43.255 14.6275 42.4799 14.1367 42.1092C13.4822 41.6373 12.6968 41.4014 11.9115 41.4014H11.1261V53.6353H2.0616V53.669ZM11.1261 35.7394H14.9548C15.7729 35.672 16.5582 35.5372 17.3436 35.335C17.9326 35.2339 18.4562 34.8969 18.8162 34.3913C19.6997 33.1781 19.5688 31.4593 18.4889 30.4145C17.8999 29.909 16.7546 29.6393 15.1184 29.6393H11.1261V35.7394ZM0 79.4849L8.60635 78.912C8.8027 80.3612 9.16266 81.4396 9.75169 82.2148C10.668 83.4281 12.0096 84.0684 13.744 84.0684C15.0202 84.0684 16.0347 83.7651 16.7219 83.1248C17.3763 82.5855 17.769 81.8104 17.769 80.9678C17.769 80.159 17.4091 79.3838 16.7873 78.8783C16.1328 78.2716 14.5948 77.665 12.1405 77.1258C8.18094 76.2158 5.33398 75.0025 3.66506 73.4522C1.99615 72.003 1.04716 69.8798 1.11261 67.6217C1.11261 66.0714 1.57074 64.5211 2.42156 63.2404C3.40327 61.7913 4.74495 60.6454 6.34841 60.005C8.08277 59.2299 10.5043 58.8255 13.5476 58.8255C17.2782 58.8255 20.1251 59.5332 22.0886 60.9824C24.052 62.4316 25.1973 64.6896 25.5573 67.8239L17.0491 68.3295C16.82 66.9814 16.3619 66.004 15.6092 65.3637C14.8893 64.7233 13.8749 64.42 12.5987 64.4537C11.5515 64.4537 10.7661 64.6896 10.2425 65.1615C9.71896 65.5659 9.42445 66.1725 9.45717 66.8466C9.45717 67.3521 9.71896 67.8239 10.1116 68.1273C10.5371 68.5317 11.5515 68.9024 13.155 69.2394C17.1145 70.1157 19.9288 70.992 21.6631 71.9019C23.3975 72.8119 24.641 73.924 25.3937 75.2384C26.179 76.5865 26.5717 78.1368 26.5717 79.6871C26.5717 81.5744 26.0154 83.4281 25.001 85.0121C23.9211 86.6635 22.4158 87.9442 20.6487 88.7193C18.7835 89.5619 16.4273 90 13.6131 90C8.63908 90 5.20308 89.0226 3.27238 87.0342C1.34168 85.0121 0.26179 82.5181 0 79.4849H0Z" fill="#72728F"/>
<path d="M48.9897 77.7208L56.9028 80.1699C56.4778 82.2164 55.5949 84.1623 54.385 85.8734C53.2733 87.3831 51.8018 88.5574 50.1342 89.329C48.4338 90.1006 46.2757 90.5032 43.6598 90.5032C40.488 90.5032 37.8721 90.0336 35.8775 89.0942C33.8501 88.1548 32.1171 86.4773 30.6457 84.0952C29.1742 81.7132 28.4548 78.6602 28.4548 74.9361C28.4548 69.9708 29.7301 66.1461 32.3133 63.4957C34.8965 60.8452 38.5261 59.5032 43.2347 59.5032C46.9297 59.5032 49.8072 60.2749 51.9326 61.7846C54.0253 63.3279 55.5949 65.6764 56.6413 68.8301L48.6627 70.6418C48.4665 69.9372 48.1722 69.2327 47.7799 68.6288C47.2894 67.9242 46.6681 67.3874 45.916 66.9848C45.164 66.5822 44.3138 66.4145 43.4636 66.4145C41.4036 66.4145 39.834 67.2532 38.755 68.9643C37.9375 70.2056 37.5124 72.1851 37.5124 74.869C37.5124 78.1905 38.0029 80.4719 38.9839 81.7132C39.9648 82.9545 41.3382 83.5584 43.1366 83.5584C44.8697 83.5584 46.1776 83.0552 47.0605 82.0822C47.9434 81.0422 48.5973 79.5996 48.9897 77.7208ZM67.4646 60.0065H76.4895V70.5076H86.3645V60.0065H95.4548V90H86.3645V77.855H76.4895V90H67.4646V60.0065Z" fill="#72728F"/>
<path d="M98 74.5168C98 69.6238 99.343 65.8032 101.996 63.0886C104.65 60.3741 108.384 59 113.133 59C118.014 59 121.748 60.3405 124.401 63.0216C127.055 65.7027 128.365 69.4562 128.365 74.2822C128.365 77.8011 127.775 80.6497 126.629 82.8951C125.515 85.107 123.779 86.9168 121.65 88.1232C119.455 89.3632 116.737 90 113.494 90C110.185 90 107.467 89.4638 105.305 88.3914C103.077 87.2519 101.243 85.4757 100.031 83.2973C98.6879 80.9514 98 78.0357 98 74.5168ZM107.041 74.5503C107.041 77.5665 107.598 79.7449 108.679 81.0854C109.759 82.3924 111.266 83.0627 113.166 83.0627C115.099 83.0627 116.606 82.4259 117.686 81.1189C118.767 79.8119 119.292 77.4995 119.292 74.1481C119.292 71.333 118.735 69.2551 117.621 67.9816C116.507 66.6746 115 66.0378 113.101 66.0378C111.43 65.9708 109.825 66.7081 108.711 68.0151C107.598 69.3222 107.041 71.5005 107.041 74.5503V74.5503ZM137.635 74.5168C137.635 69.6238 138.978 65.8032 141.631 63.0886C144.285 60.3741 148.019 59 152.768 59C157.649 59 161.416 60.3405 164.036 63.0216C166.657 65.7027 168 69.4562 168 74.2822C168 77.8011 167.41 80.6497 166.264 82.8951C165.15 85.107 163.414 86.9168 161.285 88.1232C159.09 89.3632 156.372 90 153.129 90C149.82 90 147.102 89.4638 144.94 88.3914C142.712 87.2519 140.878 85.4757 139.666 83.2973C138.323 80.9514 137.635 78.0357 137.635 74.5168V74.5168ZM146.676 74.5503C146.676 77.5665 147.233 79.7449 148.314 81.0854C149.394 82.3924 150.901 83.0627 152.801 83.0627C154.734 83.0627 156.241 82.4259 157.321 81.1189C158.402 79.8119 158.927 77.4995 158.927 74.1481C158.927 71.333 158.37 69.2551 157.256 67.9816C156.142 66.6746 154.635 66.0378 152.736 66.0378C151.065 65.9708 149.427 66.7081 148.346 68.0151C147.233 69.3222 146.676 71.5005 146.676 74.5503V74.5503Z" fill="#72728F"/>
<path d="M171.516 59H180.482V82.3714H194.483V90H171.483V59H171.516Z" fill="#72728F"/>
<path d="M107.394 39.7274L154.117 3L186.447 47.7525L139.725 84.4799L107.394 39.7274Z" fill="white"/>
<path d="M156.967 57.6144C166.009 50.5071 168.797 38.4591 163.195 30.7045C157.592 22.9498 145.721 22.425 136.68 29.5323C127.638 36.6396 124.85 48.6876 130.453 56.4423C136.055 64.1969 147.926 64.7217 156.967 57.6144Z" fill="white"/>
<path d="M120.405 42.7157L153.121 16.9989L173.428 45.1085L140.711 70.8253L120.405 42.7157Z" fill="white"/>
<path d="M156.967 57.6144C166.009 50.5071 168.797 38.4591 163.195 30.7045C157.592 22.9498 145.721 22.425 136.68 29.5323C127.638 36.6396 124.85 48.6876 130.453 56.4423C136.055 64.1969 147.926 64.7217 156.967 57.6144Z" fill="white" stroke="#72728F" stroke-width="4" stroke-miterlimit="10"/>
<path d="M120.405 42.7157L153.121 16.9989L173.428 45.1085L140.711 70.8253L120.405 42.7157Z" stroke="#72728F" stroke-width="4" stroke-miterlimit="10"/>
<path d="M156.967 57.6144C166.009 50.5071 168.797 38.4591 163.195 30.7045C157.592 22.9498 145.721 22.425 136.68 29.5323C127.638 36.6396 124.85 48.6876 130.453 56.4423C136.055 64.1969 147.926 64.7217 156.967 57.6144Z" stroke="#72728F" stroke-width="4" stroke-miterlimit="10"/>
<path d="M120.405 42.7157L153.121 16.9989L173.428 45.1085L140.711 70.8253L120.405 42.7157Z" fill="white"/>
<path d="M156.967 57.6144C166.009 50.5071 168.797 38.4591 163.195 30.7045C157.592 22.9498 145.721 22.425 136.68 29.5323C127.638 36.6396 124.85 48.6876 130.453 56.4423C136.055 64.1969 147.926 64.7217 156.967 57.6144Z" fill="white" stroke="#72728F" stroke-width="4" stroke-miterlimit="10"/>
<path d="M120.405 42.7157L153.121 16.9989L173.428 45.1085L140.711 70.8253L120.405 42.7157Z" stroke="#72728F" stroke-width="4" stroke-miterlimit="10"/>
<path d="M107.394 39.7274L154.117 3L186.447 47.7525L139.725 84.4799L107.394 39.7274Z" stroke="#72728F" stroke-width="4" stroke-miterlimit="10"/>
<path d="M156.967 57.6144C166.009 50.5071 168.797 38.4591 163.195 30.7045C157.592 22.9498 145.721 22.425 136.68 29.5323C127.638 36.6396 124.85 48.6876 130.453 56.4423C136.055 64.1969 147.926 64.7217 156.967 57.6144Z" stroke="#72728F" stroke-width="4" stroke-miterlimit="10"/>
<path d="M137.679 41.3428L140.933 38.967L144.935 44.9067C145.618 45.857 146.139 46.8753 146.529 47.9953C146.757 48.8439 146.692 49.7603 146.367 50.5749C145.944 51.5931 145.26 52.4416 144.349 53.0526C143.276 53.8332 142.365 54.2744 141.584 54.4102C140.835 54.546 140.054 54.4102 139.339 54.0708C138.558 53.6635 137.874 53.0865 137.354 52.3398L140.152 49.6245C140.38 49.9979 140.673 50.3373 140.998 50.6088C141.226 50.7785 141.486 50.8803 141.779 50.8803C142.007 50.8803 142.234 50.7785 142.397 50.6427C142.722 50.4391 142.95 50.0318 142.918 49.6245C142.82 49.0475 142.592 48.4705 142.234 48.0293L137.679 41.3428V41.3428ZM147.44 45.1103L150.401 42.6665C150.727 43.0738 151.15 43.3793 151.605 43.549C152.256 43.7527 152.939 43.6169 153.493 43.1757C153.883 42.9041 154.208 42.5308 154.339 42.0556C154.534 41.4447 154.208 40.7658 153.623 40.5622C153.525 40.5282 153.427 40.4943 153.33 40.4943C152.939 40.4604 152.256 40.6301 151.247 41.0713C149.588 41.7841 148.286 42.0556 147.31 41.9538C146.367 41.852 145.488 41.3428 144.968 40.4943C144.577 39.9173 144.382 39.2385 144.349 38.5597C144.349 37.779 144.545 36.9984 144.968 36.3535C145.586 35.4371 146.334 34.6564 147.245 34.0455C148.612 33.0612 149.816 32.586 150.857 32.586C151.898 32.586 152.874 33.0951 153.785 34.1473L150.857 36.5571C150.271 35.7765 149.165 35.6068 148.417 36.2177L148.319 36.3195C147.994 36.5232 147.766 36.8287 147.636 37.202C147.538 37.4735 147.603 37.779 147.766 38.0166C147.896 38.1863 148.091 38.3221 148.319 38.3221C148.579 38.356 149.035 38.2202 149.686 37.9148C151.312 37.202 152.549 36.7947 153.395 36.6589C154.111 36.5232 154.859 36.5911 155.542 36.8965C156.161 37.1681 156.681 37.6432 157.039 38.2202C157.495 38.8991 157.755 39.7137 157.788 40.5622C157.82 41.4447 157.592 42.2932 157.137 43.0399C156.551 43.9563 155.803 44.737 154.924 45.3479C153.135 46.6377 151.67 47.1807 150.499 46.9771C149.23 46.7734 148.189 46.0946 147.44 45.1103V45.1103Z" fill="#72728F"/>
</svg>
